<svg width="42" height="15" viewBox="0 0 42 15" fill="none" xmlns="http://www.w3.org/2000/svg">
<path d="M14.0063 14.1939H8.65144L6.35205 8.84806H4.82953V14.1939H-0.00012207V0.215076H8.22401C10.0377 0.215076 11.4462 0.592384 12.4494 1.347C13.4527 2.10161 13.9543 3.0968 13.9543 4.33257C13.9677 5.08657 13.7751 5.82846 13.4 6.46781C13.0318 7.08569 12.2865 7.63004 11.164 8.10084L14.0063 14.1939ZM4.82953 5.85806H6.89388C7.50018 5.85806 7.98897 5.74719 8.35712 5.52547C8.52878 5.43242 8.67199 5.28914 8.76998 5.11242C8.86797 4.9357 8.91668 4.73286 8.91039 4.52769C8.91039 3.63412 8.29195 3.18697 7.05507 3.18623H4.82953V5.85806ZM26.1563 3.56428V0.215076H15.0556V3.56428H18.318V14.1939H22.8939V3.56428H26.1563ZM26.2374 10.1485C27.1387 12.9888 29.5057 14.409 33.3384 14.409C35.437 14.409 37.1319 13.9704 38.4228 13.093C39.7138 12.2157 40.3593 11.0701 40.3593 9.65626C40.3719 8.80248 40.089 7.97367 39.5647 7.32812C39.04 6.67345 38.3531 6.18937 37.5825 5.93123C36.7901 5.65998 35.4523 5.34698 33.5693 4.99221C32.885 4.86361 32.4239 4.72761 32.1861 4.58423C32.0783 4.52928 31.9876 4.44251 31.9248 4.33422C31.8619 4.22594 31.8295 4.10069 31.8315 3.97337C31.8315 3.39392 32.358 3.10382 33.4112 3.10309C34.6793 3.10309 35.5209 3.57093 35.9362 4.50663L39.936 3.43124C38.9009 1.14449 36.7824 0.000739094 33.5807 0C31.4675 0 29.8479 0.437174 28.7219 1.31152C27.596 2.18587 27.033 3.28195 27.033 4.59975C27.033 5.62414 27.4247 6.51548 28.2082 7.27379C28.9916 8.0321 30.7634 8.64592 33.5235 9.11525C34.2452 9.24459 34.7465 9.39241 35.0273 9.5587C35.3081 9.725 35.4468 9.95892 35.4433 10.2605C35.4433 10.8347 34.8359 11.1215 33.6213 11.1208C32.0613 11.1208 31.0931 10.5576 30.7166 9.43121L26.2322 10.1474L26.2374 10.1485ZM39.3962 0.423501H38.9657V0.22838H40.0327V0.423501H39.6042V1.70731H39.3962V0.423501ZM41.4429 0.534365L40.9936 1.70731H40.9063L40.457 0.532148V1.70731H40.249V0.22838H40.5465L40.95 1.29046L41.3535 0.22838H41.6509V1.70731H41.4429V0.534365Z" fill="#0091EA"/>
</svg>
