<svg width="75" height="13" viewBox="0 0 75 13" fill="none" xmlns="http://www.w3.org/2000/svg">
<g clip-path="url(#clip0_31_408)">
<path d="M14.4672 0H27.0476V12.6079H14.4672V0ZM0 0H12.5804V12.6079H0V0ZM28.9344 0H41.5147V12.6079H28.9344V0ZM44.0578 0.816317C44.0583 0.976521 44.0113 1.13326 43.9228 1.26668C43.8343 1.4001 43.7083 1.50421 43.5608 1.56583C43.4132 1.62745 43.2507 1.6438 43.0939 1.61282C42.9371 1.58184 42.7929 1.50492 42.6797 1.3918C42.5665 1.27868 42.4894 1.13444 42.458 0.977348C42.4267 0.820255 42.4425 0.657372 42.5036 0.509319C42.5647 0.361267 42.6682 0.234703 42.8011 0.145651C42.934 0.0565997 43.0902 0.00906452 43.2501 0.0090639C43.4639 0.00921242 43.6689 0.0942378 43.8203 0.24553C43.9717 0.396822 44.0571 0.602058 44.0578 0.816317ZM43.9165 0.816317C43.9162 0.684293 43.8768 0.555329 43.8034 0.445718C43.73 0.336107 43.6258 0.250766 43.504 0.200475C43.3821 0.150184 43.2482 0.1372 43.119 0.163162C42.9899 0.189125 42.8713 0.252869 42.7783 0.346343C42.6852 0.439818 42.6219 0.558828 42.5963 0.68834C42.5708 0.817853 42.5841 0.952057 42.6345 1.074C42.685 1.19594 42.7705 1.30015 42.88 1.37347C42.9896 1.44678 43.1184 1.48591 43.2501 1.48591C43.427 1.48561 43.5966 1.41492 43.7216 1.28936C43.8466 1.1638 43.9167 0.993657 43.9165 0.816317ZM43.5955 0.679226C43.5992 0.730865 43.5853 0.782245 43.5559 0.824813C43.5264 0.867381 43.4834 0.89857 43.4338 0.913188L43.6141 1.2072H43.4095L43.2478 0.930182H43.1026V1.2072H42.9256V0.430535H43.3123C43.4915 0.430535 43.5949 0.525706 43.5949 0.679226H43.5955ZM43.2784 0.792524C43.366 0.792524 43.4118 0.750604 43.4118 0.679226C43.4118 0.607848 43.366 0.569893 43.2784 0.569893H43.1031V0.791391L43.2784 0.792524Z" fill="#0046DD"/>
<path d="M31.4759 2.24945H38.9893V4.11039H36.3568V10.3186H34.1128V4.11039H31.4759V2.24945ZM5.83805 2.24945H2.67261V10.3186H5.83805C6.90575 10.3186 7.92971 9.89352 8.68469 9.13689C9.43967 8.38026 9.86381 7.35406 9.86381 6.28402C9.86381 5.21399 9.43967 4.18778 8.68469 3.43115C7.92971 2.67452 6.90575 2.24945 5.83805 2.24945ZM5.46046 4.17553C5.74161 4.1691 6.02121 4.21923 6.2827 4.32295C6.5442 4.42667 6.78229 4.58188 6.9829 4.7794C7.18352 4.97692 7.34258 5.21275 7.45069 5.47294C7.5588 5.73313 7.61376 6.0124 7.61233 6.29424C7.61089 6.57608 7.55308 6.85478 7.44233 7.11385C7.33157 7.37291 7.17011 7.6071 6.9675 7.80256C6.76488 7.99802 6.52522 8.15078 6.26268 8.25182C6.00014 8.35286 5.72005 8.40012 5.43898 8.39081H4.89859V4.17553H5.46046ZM25.3417 10.3175L21.953 2.24832H19.5557L16.1642 10.3175H18.3608L18.9102 9.00942H22.5945L23.144 10.3175H25.3417ZM21.8139 7.31504H19.6936L20.7541 4.79131L21.8139 7.31504Z" fill="white"/>
<path d="M46.7546 3.57624H48.5973V4.22884H46.7546V5.68303H45.8417V2.02802H48.6951V2.70441H46.7546V3.57624ZM49.8211 3.38987H49.8426C49.9246 3.23481 50.0493 3.10665 50.2019 3.02067C50.3546 2.93469 50.5287 2.89452 50.7035 2.90495C50.7606 2.90437 50.8176 2.91103 50.873 2.92477V3.67878C50.7721 3.66664 50.6706 3.65983 50.5689 3.65838C50.1602 3.65838 49.855 3.82153 49.855 4.35177V5.68473H49.0071V2.97009H49.8217L49.8211 3.38987Z" fill="black"/>
<path d="M53.8113 4.8707C53.7243 5.1294 53.5679 5.35913 53.3594 5.5348C53.1508 5.71046 52.8981 5.82529 52.6288 5.86673C52.3596 5.90818 52.0841 5.87465 51.8326 5.76981C51.581 5.66497 51.3631 5.49285 51.2026 5.27226C51.042 5.05168 50.9451 4.79111 50.9224 4.51904C50.8996 4.24698 50.9519 3.97388 51.0736 3.7296C51.1952 3.48531 51.3816 3.27924 51.6122 3.13391C51.8428 2.98858 52.1088 2.90958 52.3812 2.90554C52.5888 2.8849 52.7984 2.9129 52.9933 2.98731C53.1883 3.06173 53.3633 3.18053 53.5046 3.33434C53.6459 3.48815 53.7497 3.67277 53.8076 3.87362C53.8655 4.07447 53.8761 4.28607 53.8385 4.49172H51.7883C51.7956 4.92055 52.0274 5.19813 52.3835 5.19813C52.5069 5.21122 52.6309 5.17963 52.7331 5.10909C52.8353 5.03855 52.909 4.9337 52.9408 4.81349L53.8113 4.8707ZM51.7962 4.00113H52.9691C52.9644 3.84842 52.9005 3.70354 52.791 3.59719C52.6816 3.49084 52.5351 3.43136 52.3826 3.43136C52.2302 3.43136 52.0837 3.49084 51.9742 3.59719C51.8648 3.70354 51.8009 3.84842 51.7962 4.00113ZM54.991 1.97649V2.61436H54.1431V1.97762L54.991 1.97649ZM54.991 2.96898V5.68362H54.1431V2.96898H54.991ZM58.1983 5.47232C58.1983 6.38437 57.5579 6.68971 56.7439 6.68971C56.4368 6.73338 56.1242 6.66688 55.8613 6.50197C55.5983 6.33705 55.402 6.08432 55.307 5.78842L56.1549 5.71421C56.1902 5.83947 56.2693 5.9478 56.3778 6.01937C56.4863 6.09095 56.6168 6.12097 56.7456 6.10396C57.104 6.10396 57.3504 5.92891 57.3504 5.45532V5.19417H57.3289C57.228 5.31649 57.0987 5.41223 56.9524 5.47306C56.8061 5.53388 56.6472 5.55793 56.4895 5.54313C56.1606 5.51166 55.8555 5.35783 55.6342 5.11197C55.4129 4.86612 55.2915 4.54608 55.2941 4.21499C55.2967 3.8839 55.4229 3.56578 55.648 3.32338C55.873 3.08099 56.1805 2.9319 56.5099 2.90554C56.6745 2.89046 56.8403 2.91918 56.9903 2.9888C57.1404 3.05842 57.2695 3.16649 57.3645 3.30208H57.386V2.97012H58.2006L58.1983 5.47232ZM57.3911 4.2215C57.4034 4.13326 57.3966 4.04342 57.3713 3.95802C57.3459 3.87263 57.3026 3.79367 57.2442 3.72647C57.1859 3.65927 57.1138 3.6054 57.0329 3.56848C56.952 3.53157 56.8642 3.51246 56.7753 3.51246C56.6864 3.51246 56.5985 3.53157 56.5176 3.56848C56.4367 3.6054 56.3646 3.65927 56.3063 3.72647C56.2479 3.79367 56.2046 3.87263 56.1793 3.95802C56.1539 4.04342 56.1472 4.13326 56.1594 4.2215C56.1594 4.6662 56.4013 4.94208 56.7767 4.94208C57.152 4.94208 57.3917 4.66506 57.3917 4.2215H57.3911ZM59.4458 3.33324C59.5484 3.19555 59.6827 3.08472 59.8372 3.01016C59.9917 2.9356 60.1619 2.89952 60.3333 2.90497C60.4658 2.89426 60.5991 2.91288 60.7237 2.95951C60.8483 3.00614 60.9612 3.07963 61.0543 3.1748C61.1475 3.26997 61.2186 3.38448 61.2627 3.51024C61.3068 3.636 61.3227 3.76993 61.3095 3.90256V5.68362H60.4616V4.09744C60.4616 3.69749 60.288 3.5519 59.9783 3.5519C59.6957 3.5519 59.426 3.7853 59.426 4.2317V5.67909H58.5781V1.97195H59.426V3.33154L59.4458 3.33324ZM63.3246 5.07804V5.68362C63.1474 5.72833 62.9652 5.74984 62.7825 5.74763C62.1749 5.74763 61.9109 5.59411 61.9109 5.02762V3.49469H61.4683V2.96898H61.9109V2.21668H62.7588V2.96898H63.337V3.49469H62.7588V4.85427C62.7588 5.06784 62.8475 5.10863 63.0488 5.10863C63.1416 5.10957 63.2342 5.0993 63.3246 5.07804ZM48.3334 10.3113C48.0085 10.566 47.6069 10.7028 47.1944 10.6994C46.4138 10.6994 45.6869 10.3595 45.6869 9.61848C45.6905 9.39195 45.7661 9.17247 45.9026 8.99187C46.0391 8.81127 46.2294 8.67895 46.446 8.61409L46.5732 8.55744C46.4563 8.45934 46.3604 8.33846 46.2914 8.20214C46.2224 8.06582 46.1818 7.91688 46.1719 7.76435C46.1719 7.2647 46.6642 6.88968 47.3527 6.88968C48.0412 6.88968 48.5335 7.26414 48.5335 7.76435C48.5335 8.14333 48.2441 8.35407 47.8857 8.54215L47.6642 8.65828L48.2464 9.23497C48.2977 9.06719 48.3236 8.89266 48.3232 8.71719H49.0445C49.0502 9.08491 48.962 9.44799 48.7885 9.772L49.6522 10.6274H48.6505L48.3334 10.3113ZM47.1944 10.0909C47.4402 10.0944 47.6786 10.0071 47.8643 9.84565L47.0119 8.99931L46.961 9.02593C46.6784 9.17435 46.528 9.35223 46.528 9.59243C46.528 9.8904 46.7739 10.0915 47.1944 10.0915V10.0909ZM46.9621 7.79268C46.9621 7.92353 47.0463 8.03683 47.2487 8.24587L47.3555 8.19659C47.6014 8.08329 47.7427 7.98018 47.7427 7.79437C47.7324 7.69796 47.6868 7.60879 47.6148 7.544C47.5428 7.47922 47.4495 7.44338 47.3527 7.44338C47.2559 7.44338 47.1626 7.47922 47.0906 7.544C47.0186 7.60879 46.9731 7.69796 46.9627 7.79437L46.9621 7.79268ZM51.8358 9.80769L51.5531 10.6268H50.5922L51.9856 6.97069H53.1997L54.5931 10.6268H53.618L53.3303 9.80769H51.8358ZM52.5881 7.69694H52.5666L52.0579 9.16982H53.1082L52.5881 7.69694ZM55.6139 8.27646C55.7183 8.13639 55.8553 8.02407 56.0129 7.94931C56.1706 7.87455 56.3441 7.83964 56.5183 7.84762C56.6522 7.83493 56.7872 7.85202 56.9138 7.89767C57.0403 7.94331 57.1552 8.01639 57.2503 8.11169C57.3454 8.20698 57.4183 8.32214 57.4638 8.44894C57.5094 8.57574 57.5264 8.71105 57.5138 8.84522V10.6263H56.6659V9.04349C56.6659 8.64411 56.4923 8.49796 56.1826 8.49796C55.8926 8.49796 55.6303 8.70813 55.6303 9.15679V10.6297H54.7824V7.91051H55.597V8.27476L55.6139 8.27646ZM60.6334 10.0422V10.6263C60.5123 10.6548 60.3881 10.6679 60.2637 10.6654C59.9093 10.6654 59.7041 10.5759 59.608 10.3538H59.5866C59.4768 10.4681 59.3438 10.5574 59.1965 10.6155C59.0492 10.6735 58.8911 10.6991 58.733 10.6903C58.2034 10.6903 57.7568 10.394 57.7568 9.88983C57.7568 9.30861 58.157 9.09108 58.8755 8.99987C59.4187 8.92963 59.5583 8.85655 59.5583 8.6985C59.5583 8.51269 59.417 8.40109 59.1507 8.40109C59.0372 8.39713 58.9257 8.43231 58.8349 8.50076C58.744 8.56921 58.6794 8.66679 58.6516 8.77724L57.8603 8.68377C57.9438 8.41311 58.12 8.18074 58.3579 8.02774C58.5958 7.87473 58.8801 7.81093 59.1604 7.84762C60.0122 7.84762 60.4039 8.20225 60.4039 8.75401V9.904C60.4039 10.0371 60.448 10.0626 60.526 10.0626C60.5626 10.0613 60.5989 10.0544 60.6334 10.0422ZM59.5594 9.32051C59.3993 9.39544 59.2269 9.44036 59.0507 9.45307C58.8042 9.49442 58.6273 9.61395 58.6273 9.83715C58.6261 9.88212 58.6346 9.92682 58.6522 9.96823C58.6697 10.0096 58.6959 10.0468 58.7291 10.0771C58.7622 10.1075 58.8014 10.1303 58.8442 10.1442C58.8869 10.158 58.9321 10.1624 58.9767 10.1572C59.0537 10.16 59.1306 10.147 59.2024 10.1189C59.2743 10.0909 59.3397 10.0483 59.3945 9.994C59.4494 9.93966 59.4926 9.87464 59.5214 9.80295C59.5503 9.73126 59.5642 9.65441 59.5623 9.57713L59.5594 9.32051ZM61.6888 6.91914V10.6263H60.8409V6.91914H61.6888ZM63.9537 10.6263C63.6197 11.5208 63.2449 11.6324 62.7271 11.6324C62.557 11.6339 62.387 11.6234 62.2184 11.6012V10.9446C62.3371 10.9657 62.4574 10.976 62.5779 10.9752C62.6739 10.9907 62.7722 10.9698 62.8535 10.9164C62.9349 10.8631 62.9934 10.7812 63.0177 10.6869L63.0493 10.6087L61.9143 7.91051H62.8391L63.4761 9.66664H63.4976L64.0628 7.91051H64.9735L63.9537 10.6263ZM66.8631 10.0207V10.6263C66.6859 10.6708 66.5037 10.6924 66.321 10.6903C65.7128 10.6903 65.4494 10.5368 65.4494 9.97084V8.43735H65.0062V7.91164H65.4494V7.1599H66.2973V7.91164H66.8756V8.43735H66.2996V9.79693C66.2996 10.0105 66.3877 10.0519 66.5895 10.0519C66.6816 10.0523 66.7735 10.0418 66.8631 10.0207ZM68.0275 6.91914V7.55531H67.1797V6.91914H68.0275ZM68.0275 7.91164V10.6263H67.1797V7.91164H68.0275ZM70.3474 9.59922L71.2111 9.68363C71.1127 10.0046 70.9041 10.2802 70.6223 10.4618C70.3405 10.6433 70.0037 10.7191 69.6715 10.6755C69.3394 10.632 69.0333 10.4721 68.8075 10.224C68.5818 9.97594 68.4509 9.6558 68.4382 9.32031C68.4254 8.98482 68.5316 8.65563 68.7379 8.39108C68.9441 8.12653 69.2372 7.94369 69.5651 7.87497C69.893 7.80625 70.2346 7.85608 70.5294 8.01563C70.8241 8.17518 71.053 8.43415 71.1755 8.74665L70.3366 8.89677C70.3113 8.76847 70.2421 8.65304 70.141 8.57033C70.0399 8.48761 69.9132 8.44279 69.7827 8.44358C69.4237 8.44358 69.1903 8.70473 69.1903 9.27292C69.1903 9.84112 69.4237 10.0994 69.7827 10.0994C69.9217 10.1003 70.0562 10.0497 70.1603 9.95741C70.2645 9.86513 70.3311 9.73761 70.3474 9.59922ZM73.2025 8.73702C73.1784 8.62281 73.1133 8.52147 73.0195 8.4523C72.9256 8.38314 72.8097 8.351 72.6937 8.362C72.4507 8.362 72.2738 8.4617 72.2738 8.64525C72.2738 8.82029 72.4597 8.87185 72.7452 8.91943L73.0408 8.96362C73.5597 9.04576 74.069 9.19021 74.069 9.81336C74.069 10.4235 73.4834 10.6909 72.7124 10.6909C71.9606 10.6909 71.4191 10.3816 71.323 9.83488L72.1217 9.74368C72.1469 9.87906 72.2231 9.99951 72.3346 10.08C72.4461 10.1605 72.5842 10.1949 72.7203 10.1759C73.0125 10.1759 73.2008 10.053 73.2008 9.85018C73.2008 9.6842 73.0063 9.60715 72.6983 9.559L72.3738 9.51028C71.912 9.44117 71.4225 9.28369 71.4225 8.69057C71.4225 8.14447 72.0183 7.84762 72.6853 7.84762C73.367 7.84762 73.8876 8.14503 73.9854 8.65148L73.2025 8.73702Z" fill="black"/>
</g>
<defs>
<clipPath id="clip0_31_408">
<rect width="74.0713" height="12.6079" fill="white"/>
</clipPath>
</defs>
</svg>
