<svg width="30" height="30" viewBox="0 0 30 30" fill="none" xmlns="http://www.w3.org/2000/svg">
<rect width="30" height="30" rx="2" fill="white"/>
<circle cx="15" cy="15" r="13" fill="#5E7588"/>
<path d="M21.001 10.5002C21.001 10.2241 20.7771 10.0002 20.501 10.0002H9.5C9.22386 10.0002 9 10.2241 9 10.5002V21.5012C9 21.7774 9.22386 22.0012 9.5 22.0012H20.501C20.7771 22.0012 21.001 21.7774 21.001 21.5012V10.5002Z" fill="white"/>
<path d="M10 12.5H20" stroke="#5E7588" stroke-linecap="round"/>
<path fill-rule="evenodd" clip-rule="evenodd" d="M11.2505 7C11.6648 7 12.0006 7.27438 12.0006 7.61285V10.0642C12.0006 10.4027 11.6648 10.6771 11.2505 10.6771C10.8363 10.6771 10.5005 10.4027 10.5005 10.0642V7.61285C10.5005 7.27438 10.8363 7 11.2505 7Z" fill="white"/>
<path fill-rule="evenodd" clip-rule="evenodd" d="M18.751 7C19.1653 7 19.5011 7.27438 19.5011 7.61285V10.0642C19.5011 10.4027 19.1653 10.6771 18.751 10.6771C18.3368 10.6771 18.001 10.4027 18.001 10.0642V7.61285C18.001 7.27438 18.3368 7 18.751 7Z" fill="white"/>
</svg>
