<svg width="26" height="26" viewBox="0 0 26 26" fill="none" xmlns="http://www.w3.org/2000/svg">
<path d="M13 0C5.837 0 0 5.837 0 13C0 20.163 5.837 26 13 26C20.163 26 26 20.163 26 13C26 5.837 20.163 0 13 0ZM18.655 17.641C18.473 17.953 18.148 18.122 17.81 18.122C17.641 18.122 17.472 18.083 17.316 17.979L13.286 15.574C12.285 14.976 11.544 13.663 11.544 12.506V7.176C11.544 6.643 11.986 6.201 12.519 6.201C13.052 6.201 13.494 6.643 13.494 7.176V12.506C13.494 12.974 13.884 13.663 14.287 13.897L18.317 16.302C18.785 16.575 18.941 17.173 18.655 17.641Z" fill="#5E7588"/>
</svg>
