<svg width="30" height="30" viewBox="0 0 30 30" fill="none" xmlns="http://www.w3.org/2000/svg">
<rect width="30" height="30" rx="2" fill="white"/>
<circle cx="15" cy="15" r="13" fill="#5E7588"/>
<path fill-rule="evenodd" clip-rule="evenodd" d="M15 8.23077C11.2615 8.23077 8.23077 11.2615 8.23077 15C8.23077 18.7385 11.2615 21.7692 15 21.7692C18.7385 21.7692 21.7692 18.7385 21.7692 15C21.7692 11.2615 18.7385 8.23077 15 8.23077ZM7 15C7 10.5817 10.5817 7 15 7C19.4183 7 23 10.5817 23 15C23 19.4183 19.4183 23 15 23C10.5817 23 7 19.4183 7 15Z" fill="white"/>
<rect x="7" y="14" width="15" height="2" fill="white"/>
<path fill-rule="evenodd" clip-rule="evenodd" d="M13.6919 10.0377C13.2719 11.2755 13 13.0295 13 15C13 16.9705 13.2719 18.7245 13.6919 19.9623C13.9022 20.5823 14.1399 21.0437 14.3783 21.341C14.6145 21.6355 14.8241 21.738 15 21.738C15.1759 21.738 15.3855 21.6355 15.6217 21.341C15.8601 21.0437 16.0978 20.5823 16.3081 19.9623C16.7281 18.7245 17 16.9705 17 15C17 13.0295 16.7281 11.2755 16.3081 10.0377C16.0978 9.41768 15.8601 8.95626 15.6217 8.65903C15.3855 8.36446 15.1759 8.26204 15 8.26204C14.8241 8.26204 14.6145 8.36446 14.3783 8.65903C14.1399 8.95626 13.9022 9.41768 13.6919 10.0377ZM13.6755 7.7612C14.0374 7.30998 14.4856 7 15 7C15.5144 7 15.9626 7.30998 16.3245 7.7612C16.6843 8.20975 16.9854 8.82749 17.2274 9.54098C17.7123 10.9702 18 12.9007 18 15C18 17.0993 17.7123 19.0298 17.2274 20.459C16.9854 21.1725 16.6843 21.7903 16.3245 22.2388C15.9626 22.69 15.5144 23 15 23C14.4856 23 14.0374 22.69 13.6755 22.2388C13.3157 21.7903 13.0146 21.1725 12.7726 20.459C12.2877 19.0298 12 17.0993 12 15C12 12.9007 12.2877 10.9702 12.7726 9.54098C13.0146 8.82749 13.3157 8.20975 13.6755 7.7612Z" fill="white"/>
</svg>
