<svg width="121" height="60" viewBox="0 0 121 60" fill="none" xmlns="http://www.w3.org/2000/svg">
<path fill-rule="evenodd" clip-rule="evenodd" d="M53.2805 0.0523952L51.7554 0.979895C51.6473 1.04563 51.5812 1.16402 51.5812 1.29179V18.8102C51.5812 18.9753 51.4709 19.1194 51.3139 19.163C50.7208 19.3274 50.3975 19.4445 50.0595 19.6709C49.6307 19.9581 49.4281 20.4797 49.4281 21.0006V25.531C49.4281 25.5967 49.3931 25.6572 49.3366 25.6895L48.1756 26.3514C48.0626 26.4158 47.9927 26.537 47.9927 26.6684V29.0018C47.9927 29.2027 48.1533 29.3655 48.3515 29.3655H50.5943C50.7925 29.3655 50.9539 29.5277 50.9621 29.7284C50.9901 30.4116 51.1054 31.8206 51.5812 31.8206H54.5417C54.8838 31.8206 55.0172 30.3923 55.0612 29.7146C55.0739 29.5193 55.2328 29.3655 55.4258 29.3655H67.8448C68.0327 29.3655 68.1893 29.5115 68.2104 29.7007C68.2855 30.3727 68.5032 31.8206 68.9855 31.8206H71.6769C72.0902 31.8206 72.2919 30.3728 72.3633 29.7008C72.3834 29.5115 72.5399 29.3655 72.7278 29.3655H74.9962C75.1944 29.3655 75.3551 29.2027 75.3551 29.0018V26.7263C75.3551 26.5657 75.2511 26.4241 75.0993 26.3779L73.6887 25.949C73.6128 25.9259 73.5608 25.8551 73.5608 25.7748V20.6361C73.5608 19.454 72.7534 19.1812 71.8563 19.0903V1.63838C71.8563 1.52001 71.7995 1.40904 71.7039 1.34092L69.9994 0.125134C69.7616 -0.0444486 69.434 0.127917 69.434 0.422591V5.54149C69.434 5.71626 69.2145 5.79042 69.1111 5.6506L68.0883 4.26845C67.4106 3.35257 66.347 2.81355 65.2175 2.81355H58.091C56.9837 2.81355 55.9383 3.33175 55.2584 4.21774L54.1451 5.66868C54.0402 5.80537 53.824 5.73019 53.824 5.55703V0.364287C53.824 0.0815656 53.5197 -0.093064 53.2805 0.0523952ZM54.6316 8.90566H68.8062V13.816H54.6316V8.90566ZM52.4782 22.9093C52.28 22.9093 52.1194 23.0721 52.1194 23.273V24.1823C52.1194 24.3832 52.28 24.5461 52.4782 24.5461H54.8108C55.009 24.5461 55.1696 24.3832 55.1696 24.1823V23.273C55.1696 23.0721 55.009 22.9093 54.8108 22.9093H52.4782ZM68.2678 23.273C68.2678 23.0721 68.4285 22.9093 68.6267 22.9093H70.9592C71.1574 22.9093 71.3181 23.0721 71.3181 23.273V24.1823C71.3181 24.3832 71.1574 24.5461 70.9592 24.5461H68.6267C68.4285 24.5461 68.2678 24.3832 68.2678 24.1823V23.273ZM65.9352 16.9079H57.5022V25.2736H65.9352V16.9079ZM65.2175 17.9991H58.0405V18.5447H65.2175V17.9991ZM58.0405 21.4545H65.2175V22.0001H58.0405V21.4545ZM65.2175 19.8177H58.0405V20.3633H65.2175V19.8177ZM58.0405 23.2731H65.2175V23.8187H58.0405V23.2731ZM81.6077 27.306L78.9438 30.0932H119.045L81.893 27.1964C81.7865 27.1881 81.682 27.2283 81.6077 27.306ZM44.4043 30.0927L41.6502 27.3012C41.5761 27.2261 41.4734 27.1876 41.3689 27.1958L4.21298 30.0927H44.4043ZM57.5934 47.1879H55.127V39.9439H57.5934V47.1879ZM55.0639 38.1409C55.0639 37.7658 55.1669 37.4866 55.373 37.3034C55.579 37.1201 55.9112 37.0284 56.3696 37.0284C56.828 37.0284 57.1623 37.1222 57.3726 37.3098C57.5828 37.4973 57.688 37.7744 57.688 38.1409C57.688 38.8741 57.2485 39.2406 56.3696 39.2406C55.4991 39.2406 55.0639 38.8741 55.0639 38.1409ZM34.8007 43.1152C35.0993 42.6335 35.3537 42.2584 35.564 41.9899L37.1662 39.9439H39.9164L37.4374 43.0256L40.0741 47.1879H37.2545L35.6901 44.5921L34.889 45.2123V47.1879H32.41V37.2394H34.889V41.1523C34.889 41.8215 34.8428 42.4758 34.7502 43.1152H34.8007ZM3.01853 47.1879H5.51017V39.9056H7.75579V37.8404H0.766602V39.9056H3.01853V47.1879ZM14.3041 39.8672C14.1107 39.8331 13.9067 39.8161 13.6923 39.8161C13.318 39.8161 12.9458 39.9354 12.5758 40.1741C12.2099 40.4085 11.9239 40.7176 11.7179 41.1012H11.598L11.2132 39.9439H9.37763V47.1879H11.844V43.6266C11.844 43.1578 11.966 42.7997 12.2099 42.5525C12.4538 42.301 12.8449 42.1753 13.3832 42.1753C13.7406 42.1753 14.0203 42.2009 14.2221 42.252L14.4429 39.8928L14.3041 39.8672ZM20.9849 47.1879L20.6758 46.2864H20.5308C20.3247 46.6189 20.0366 46.8746 19.6666 47.0536C19.3007 47.2284 18.8697 47.3158 18.3734 47.3158C17.5871 47.3158 16.9752 47.0856 16.5378 46.6252C16.1005 46.1606 15.8818 45.5064 15.8818 44.6624V39.9439H18.3482V43.9016C18.3482 44.3747 18.4134 44.7327 18.5438 44.9757C18.6783 45.2187 18.897 45.3401 19.1998 45.3401C19.6245 45.3401 19.9273 45.1718 20.1081 44.835C20.2889 44.494 20.3794 43.9208 20.3794 43.1152V39.9439H22.8458V47.1879H20.9849ZM25.5904 46.3567C26.196 46.9961 27.0833 47.3158 28.2524 47.3158C29.1439 47.3158 29.9071 47.1026 30.5421 46.6764V44.688C29.8777 45.1142 29.1838 45.3273 28.4605 45.3273C27.6153 45.3273 27.1926 44.7477 27.1926 43.5883C27.1926 43.0129 27.302 42.5674 27.5206 42.252C27.7393 41.9366 28.0484 41.7789 28.4479 41.7789C28.7213 41.7789 28.9841 41.8194 29.2364 41.9004C29.4887 41.9771 29.7642 42.0815 30.0627 42.2137L30.7882 40.3659C30.0564 39.9993 29.2764 39.8161 28.4479 39.8161C27.2452 39.8161 26.3179 40.1464 25.6661 40.8071C25.0143 41.4677 24.6884 42.3991 24.6884 43.6011C24.6884 44.7988 24.9891 45.7174 25.5904 46.3567ZM51.8777 45.922C52.7271 45.078 53.1519 43.876 53.1519 42.316C53.1519 40.8667 52.7482 39.7585 51.9408 38.9913C51.1375 38.224 49.9958 37.8404 48.5155 37.8404H45.3237V47.1879H48.3074C49.8423 47.1879 51.0324 46.7659 51.8777 45.922ZM50.061 40.5002C50.3974 40.9136 50.5656 41.5487 50.5656 42.4055C50.5656 43.3219 50.389 44.0039 50.0358 44.4514C49.6825 44.8947 49.1274 45.1164 48.3705 45.1164H47.8154V39.88H48.5408C49.222 39.88 49.7288 40.0867 50.061 40.5002ZM64.5012 46.7212C65.0227 46.3247 65.2834 45.7387 65.2834 44.9629C65.2834 44.575 65.2246 44.2468 65.1068 43.9783C64.9933 43.7055 64.8124 43.4689 64.5643 43.2686C64.3204 43.0683 63.9483 42.8637 63.4478 42.6548C62.775 42.3863 62.3671 42.2094 62.2241 42.1241C62.0853 42.0346 62.0159 41.9281 62.0159 41.8045C62.0159 41.6041 62.2178 41.504 62.6215 41.504C62.8528 41.504 63.1514 41.5572 63.5172 41.6638C63.8831 41.7661 64.23 41.8918 64.558 42.041L65.2267 40.4298C64.7809 40.2295 64.3499 40.0782 63.9335 39.9759C63.5214 39.8693 63.0799 39.8161 62.6089 39.8161C61.6711 39.8161 60.9457 40.0036 60.4326 40.3787C59.9196 40.7538 59.6631 41.2781 59.6631 41.9515C59.6631 42.4843 59.7934 42.9255 60.0542 43.275C60.3149 43.6203 60.7733 43.9293 61.4293 44.2021C62.1484 44.4919 62.5815 44.688 62.7287 44.7903C62.8801 44.8883 62.9558 45.0013 62.9558 45.1291C62.9558 45.3764 62.6888 45.5 62.1547 45.5C61.7972 45.5 61.3893 45.4446 60.931 45.3337C60.4768 45.2229 60.0584 45.0823 59.6757 44.9118V46.913C60.0836 47.0664 60.4831 47.1708 60.8742 47.2262C61.2653 47.2859 61.7258 47.3158 62.2556 47.3158C63.2313 47.3158 63.9798 47.1176 64.5012 46.7212ZM71.3902 47.3158C71.0286 47.3158 70.7048 47.2561 70.4188 47.1367C70.1328 47.0131 69.849 46.7936 69.5672 46.4782H69.4537C69.5294 46.9854 69.5672 47.3008 69.5672 47.4244V50.3335H67.1008V39.9439H69.1067L69.4537 40.8646H69.5672C70.0256 40.1656 70.6585 39.8161 71.4659 39.8161C72.2565 39.8161 72.8768 40.1485 73.3267 40.8135C73.7767 41.4784 74.0017 42.3905 74.0017 43.5499C74.0017 44.7178 73.7662 45.6385 73.2952 46.312C72.8284 46.9812 72.1934 47.3158 71.3902 47.3158ZM70.5639 41.7789C70.2022 41.7789 69.9478 41.911 69.8006 42.1753C69.6576 42.4353 69.5798 42.8232 69.5672 43.3389V43.5371C69.5672 44.1594 69.6492 44.6091 69.8132 44.8862C69.9772 45.1632 70.2359 45.3018 70.5891 45.3018C70.9045 45.3018 71.1337 45.1654 71.2767 44.8926C71.4196 44.6155 71.4911 44.1594 71.4911 43.5243C71.4911 42.902 71.4196 42.4566 71.2767 42.1881C71.1337 41.9153 70.8961 41.7789 70.5639 41.7789ZM80.0517 46.2288L80.5248 47.1879H82.2342V42.4374C82.2342 41.6105 81.9819 40.9669 81.4773 40.5066C80.9769 40.0462 80.2683 39.8161 79.3515 39.8161C78.0815 39.8161 77.0302 40.0334 76.1976 40.4682L76.9104 42.1178C77.7136 41.7597 78.3759 41.5807 78.8974 41.5807C79.4777 41.5807 79.7678 41.8791 79.7678 42.4758V42.5781L78.5756 42.6165C77.5706 42.6633 76.8031 42.8765 76.2733 43.2558C75.7434 43.6309 75.4785 44.2042 75.4785 44.9757C75.4785 45.7174 75.6719 46.2928 76.0588 46.702C76.4457 47.1112 76.9755 47.3158 77.6484 47.3158C78.1951 47.3158 78.6408 47.239 78.9857 47.0856C79.3305 46.9321 79.669 46.6466 80.0012 46.2288H80.0517ZM79.4588 45.2634C79.2485 45.4552 78.9941 45.5511 78.6955 45.5511C78.2287 45.5511 77.9953 45.3295 77.9953 44.8862C77.9953 44.3108 78.4011 44.0081 79.2127 43.9783L79.7805 43.9527V44.5154C79.7805 44.8223 79.6732 45.0716 79.4588 45.2634ZM87.8616 45.3401C88.1938 45.3401 88.5912 45.257 89.0538 45.0908V46.913C88.7216 47.0579 88.4041 47.1602 88.1013 47.2199C87.8027 47.2838 87.4516 47.3158 87.0479 47.3158C86.2195 47.3158 85.6223 47.1112 85.2564 46.702C84.8906 46.2885 84.7077 45.6556 84.7077 44.8031V41.8173H83.8435V40.8007L84.941 40.0143L85.5782 38.4926H87.193V39.9439H88.9466V41.8173H87.193V44.6368C87.193 45.1057 87.4159 45.3401 87.8616 45.3401ZM91.3443 46.3567C91.9499 46.9961 92.8372 47.3158 94.0062 47.3158C94.8978 47.3158 95.661 47.1026 96.296 46.6764V44.688C95.6316 45.1142 94.9377 45.3273 94.2144 45.3273C93.3691 45.3273 92.9465 44.7477 92.9465 43.5883C92.9465 43.0129 93.0559 42.5674 93.2745 42.252C93.4932 41.9366 93.8023 41.7789 94.2018 41.7789C94.4751 41.7789 94.738 41.8194 94.9903 41.9004C95.2426 41.9771 95.5181 42.0815 95.8166 42.2137L96.542 40.3659C95.8103 39.9993 95.0302 39.8161 94.2018 39.8161C92.9991 39.8161 92.0718 40.1464 91.42 40.8071C90.7682 41.4677 90.4423 42.3991 90.4423 43.6011C90.4423 44.7988 90.7429 45.7174 91.3443 46.3567ZM102.661 47.1879V43.2366C102.661 42.2648 102.378 41.7789 101.81 41.7789C101.406 41.7789 101.108 41.9515 100.914 42.2968C100.725 42.6378 100.63 43.2068 100.63 44.0039V47.1879H98.1639V37.2394H100.63V38.6524C100.63 39.2918 100.597 40.0206 100.529 40.839H100.643C100.878 40.4639 101.158 40.1997 101.482 40.0462C101.806 39.8928 102.182 39.8161 102.611 39.8161C103.41 39.8161 104.03 40.0505 104.472 40.5194C104.918 40.984 105.14 41.6361 105.14 42.4758V47.1879H102.661ZM107.942 46.3567C108.602 46.9961 109.527 47.3158 110.717 47.3158C111.289 47.3158 111.781 47.2774 112.193 47.2007C112.606 47.124 113.005 46.9854 113.392 46.7851V44.9885C112.967 45.1888 112.572 45.3316 112.206 45.4169C111.844 45.4978 111.447 45.5383 111.014 45.5383C110.539 45.5383 110.162 45.4233 109.885 45.1931C109.611 44.9629 109.466 44.6454 109.449 44.2404H113.859V43.1279C113.859 42.0581 113.564 41.2397 112.976 40.6728C112.391 40.1016 111.561 39.8161 110.484 39.8161C109.353 39.8161 108.482 40.1443 107.872 40.8007C107.263 41.4528 106.958 42.3905 106.958 43.6139C106.958 44.7988 107.286 45.7131 107.942 46.3567ZM109.841 41.7981C110.038 41.6105 110.282 41.5168 110.572 41.5168C110.888 41.5168 111.138 41.6212 111.323 41.83C111.512 42.0389 111.611 42.3181 111.619 42.6676H109.5C109.534 42.2712 109.647 41.9814 109.841 41.7981ZM120.016 39.8161C120.23 39.8161 120.434 39.8331 120.628 39.8672L120.767 39.8928L120.546 42.252C120.344 42.2009 120.064 42.1753 119.707 42.1753C119.169 42.1753 118.777 42.301 118.534 42.5525C118.29 42.7997 118.168 43.1578 118.168 43.6266V47.1879H115.701V39.9439H117.537L117.922 41.1012H118.042C118.248 40.7176 118.534 40.4085 118.899 40.1741C119.27 39.9354 119.642 39.8161 120.016 39.8161ZM110.406 56.9078H108.234V57.2999H109.987V59.3995C109.608 59.5547 109.148 59.6323 108.605 59.6323C107.767 59.6323 107.131 59.4063 106.699 58.9543C106.266 58.4995 106.05 57.8228 106.05 56.9241C106.05 56.099 106.277 55.4441 106.731 54.9593C107.188 54.4719 107.804 54.2281 108.581 54.2281C109.129 54.2281 109.658 54.348 110.169 54.5876L110.334 54.2118C109.823 53.9722 109.247 53.8523 108.605 53.8523C108.011 53.8523 107.485 53.9803 107.025 54.2363C106.568 54.4923 106.216 54.8558 105.969 55.327C105.725 55.7954 105.603 56.3332 105.603 56.9405C105.603 57.9154 105.85 58.6697 106.344 59.2034C106.841 59.7345 107.554 60 108.484 60C109.196 60 109.837 59.8774 110.406 59.6323V56.9078ZM42.4202 57.8105H40.0263L39.2042 59.9183H38.7488L41.1185 53.9218H41.3804L43.7017 59.9183H43.2383L42.4202 57.8105ZM40.1754 57.4347H42.2831L41.4812 55.282C41.414 55.1132 41.3334 54.879 41.2394 54.5794C41.1668 54.8409 41.0876 55.0778 41.0016 55.2902L40.1754 57.4347ZM13.3445 59.9183H13.7596V54.3384H15.6738V53.9463H11.4302V54.3384H13.3445V59.9183ZM26.0245 59.9183V57.3163H27.4874L29.0067 59.9183H29.4984L27.8984 57.1978C28.3229 57.078 28.6386 56.8806 28.8455 56.6055C29.0551 56.3305 29.1598 55.9928 29.1598 55.5925C29.1598 55.0424 28.9852 54.6312 28.6359 54.3589C28.2867 54.0838 27.7466 53.9463 27.0159 53.9463H25.6134V59.9183H26.0245ZM27.1488 56.9568H26.0245V54.3221H26.9997C27.6069 54.3221 28.0449 54.4256 28.3135 54.6325C28.5822 54.8395 28.7165 55.1704 28.7165 55.6252C28.7165 56.0636 28.5795 56.3958 28.3055 56.6218C28.0314 56.8451 27.6459 56.9568 27.1488 56.9568ZM53.601 53.9463V59.9183H54.012V53.9463H53.601ZM69.0255 59.9183H68.6104L65.1203 54.6162H65.0881C65.1203 55.248 65.1364 55.7245 65.1364 56.0459V59.9183H64.7415V53.9463H65.1526L68.6386 59.2402H68.6627C68.6386 58.75 68.6265 58.2844 68.6265 57.8432V53.9463H69.0255V59.9183ZM79.7589 53.9463V59.9183H80.17V53.9463H79.7589ZM95.1834 59.9183H94.7683L91.2783 54.6162H91.246C91.2783 55.248 91.2944 55.7245 91.2944 56.0459V59.9183H90.8994V53.9463H91.3105L94.7965 59.2402H94.8207C94.7965 58.75 94.7844 58.2844 94.7844 57.8432V53.9463H95.1834V59.9183Z" fill="white"/>
</svg>
